
<global>
amp_veltrack=0
ampeg_release=0.45
</global>

<group>
group_label=PP
xf_cccurve=gain
xfin_hicc1=42
xfout_hicc1=84
xfout_locc1=43

<region>
hikey=a3
hivel=127
lokey=g#3
loop_end=286837
loop_mode=loop_continuous
loop_start=104923
loop_xfade=34526
lovel=1
pitch_keycenter=a3
sample=Violin1Solo_sul_ponticello_PP_A3.opus
</region>

<region>
hikey=a4
hivel=127
lokey=g#4
loop_end=271771
loop_mode=loop_continuous
loop_start=99412
loop_xfade=32712
lovel=1
pitch_keycenter=a4
sample=Violin1Solo_sul_ponticello_PP_A4.opus
</region>

<region>
hikey=a5
hivel=127
lokey=g#5
loop_end=276262
loop_mode=loop_continuous
loop_start=105441
loop_xfade=34696
lovel=1
pitch_keycenter=a5
sample=Violin1Solo_sul_ponticello_PP_A5.opus
</region>

<region>
hikey=a6
hivel=127
lokey=g#6
loop_end=262335
loop_mode=loop_continuous
loop_start=101710
loop_xfade=33469
lovel=1
pitch_keycenter=a6
sample=Violin1Solo_sul_ponticello_PP_A6.opus
</region>

<region>
hikey=b3
hivel=127
lokey=a#3
loop_end=228835
loop_mode=loop_continuous
loop_start=83706
loop_xfade=27544
lovel=1
pitch_keycenter=b3
sample=Violin1Solo_sul_ponticello_PP_B3.opus
</region>

<region>
hikey=b4
hivel=127
lokey=a#4
loop_end=270635
loop_mode=loop_continuous
loop_start=98996
loop_xfade=32576
lovel=1
pitch_keycenter=b4
sample=Violin1Solo_sul_ponticello_PP_B4.opus
</region>

<region>
hikey=b5
hivel=127
lokey=a#5
loop_end=287434
loop_mode=loop_continuous
loop_start=105141
loop_xfade=34598
lovel=1
pitch_keycenter=b5
sample=Violin1Solo_sul_ponticello_PP_B5.opus
</region>

<region>
hikey=E7
hivel=127
lokey=a#6
loop_end=272384
loop_mode=loop_continuous
loop_start=84638
loop_xfade=52179
lovel=1
pitch_keycenter=B6
sample=Violin1Solo_sul_ponticello_PP_B6.opus
</region>

<region>
hikey=c#4
hivel=127
lokey=c4
loop_end=285080
loop_mode=loop_continuous
loop_start=104280
loop_xfade=34314
lovel=1
pitch_keycenter=c#4
sample=Violin1Solo_sul_ponticello_PP_C#4.opus
</region>

<region>
hikey=c#5
hivel=127
lokey=c5
loop_end=287698
loop_mode=loop_continuous
loop_start=105238
loop_xfade=34629
lovel=1
pitch_keycenter=c#5
sample=Violin1Solo_sul_ponticello_PP_C#5.opus
</region>

<region>
hikey=c#6
hivel=127
lokey=c6
loop_end=253302
loop_mode=loop_continuous
loop_start=101352
loop_xfade=33351
lovel=1
pitch_keycenter=c#6
sample=Violin1Solo_sul_ponticello_PP_C#6.opus
</region>

<region>
hikey=d#4
hivel=127
lokey=d4
loop_end=279878
loop_mode=loop_continuous
loop_start=102377
loop_xfade=33688
lovel=1
pitch_keycenter=d#4
sample=Violin1Solo_sul_ponticello_PP_D#4.opus
</region>

<region>
hikey=d#5
hivel=127
lokey=d5
loop_end=285392
loop_mode=loop_continuous
loop_start=104394
loop_xfade=34352
lovel=1
pitch_keycenter=d#5
sample=Violin1Solo_sul_ponticello_PP_D#5.opus
</region>

<region>
hikey=d#6
hivel=127
lokey=d6
loop_end=277298
loop_mode=loop_continuous
loop_start=101434
loop_xfade=33377
lovel=1
pitch_keycenter=d#6
sample=Violin1Solo_sul_ponticello_PP_D#6.opus
</region>

<region>
hikey=f4
hivel=127
lokey=e4
loop_end=282827
loop_mode=loop_continuous
loop_start=103456
loop_xfade=34043
lovel=1
offset=15492
pitch_keycenter=f4
sample=Violin1Solo_sul_ponticello_PP_F4.opus
</region>

<region>
hikey=f5
hivel=127
lokey=e5
loop_end=277923
loop_mode=loop_continuous
loop_start=101662
loop_xfade=33453
lovel=1
pitch_keycenter=f5
sample=Violin1Solo_sul_ponticello_PP_F5.opus
</region>

<region>
hikey=f6
hivel=127
lokey=e6
loop_end=259308
loop_mode=loop_continuous
loop_start=94853
loop_xfade=31212
lovel=1
pitch_keycenter=f6
sample=Violin1Solo_sul_ponticello_PP_F6.opus
</region>

<region>
hivel=127
key=g3
loop_end=280413
loop_mode=loop_continuous
loop_start=104616
loop_xfade=34425
lovel=1
sample=Violin1Solo_sul_ponticello_PP_G3.opus
</region>

<region>
hikey=g4
hivel=127
lokey=f#4
loop_end=263003
loop_mode=loop_continuous
loop_start=96205
loop_xfade=31657
lovel=1
pitch_keycenter=g4
sample=Violin1Solo_sul_ponticello_PP_G4.opus
</region>

<region>
hikey=g5
hivel=127
lokey=f#5
loop_end=285578
loop_mode=loop_continuous
loop_start=104462
loop_xfade=34374
lovel=1
pitch_keycenter=g5
sample=Violin1Solo_sul_ponticello_PP_G5.opus
</region>

<region>
hikey=g6
hivel=127
lokey=f#6
loop_end=286853
loop_mode=loop_continuous
loop_start=104929
loop_xfade=34528
lovel=1
offset=16682
pitch_keycenter=g6
sample=Violin1Solo_sul_ponticello_PP_G6.opus
</region>
</group>

<group>
group_label=MF
xf_cccurve=gain
xfin_hicc1=84
xfin_locc1=43
xfout_hicc1=127
xfout_locc1=85

<region>
hikey=a3
hivel=127
lokey=g#3
loop_end=227049
loop_mode=loop_continuous
loop_start=83053
loop_xfade=27329
lovel=1
pitch_keycenter=a3
sample=Violin1Solo_sul_ponticello_MF_A3.opus
</region>

<region>
hikey=a4
hivel=127
lokey=g#4
loop_end=253263
loop_mode=loop_continuous
loop_start=82027
loop_xfade=26992
lovel=1
pitch_keycenter=a4
sample=Violin1Solo_sul_ponticello_MF_A4.opus
</region>

<region>
hikey=a5
hivel=127
lokey=g#5
loop_end=258662
loop_mode=loop_continuous
loop_start=79624
loop_xfade=26201
lovel=1
pitch_keycenter=a5
sample=Violin1Solo_sul_ponticello_MF_A5.opus
</region>

<region>
hikey=a6
hivel=127
lokey=g#6
loop_end=240706
loop_mode=loop_continuous
loop_start=74754
loop_xfade=24599
lovel=1
pitch_keycenter=a6
sample=Violin1Solo_sul_ponticello_MF_A6.opus
</region>

<region>
hikey=b3
hivel=127
lokey=a#3
loop_end=223195
loop_mode=loop_continuous
loop_start=67582
loop_xfade=26865
lovel=1
pitch_keycenter=b3
sample=Violin1Solo_sul_ponticello_MF_B3.opus
</region>

<region>
hikey=b4
hivel=127
lokey=a#4
loop_end=265090
loop_mode=loop_continuous
loop_start=81772
loop_xfade=26907
lovel=1
pitch_keycenter=b4
sample=Violin1Solo_sul_ponticello_MF_B4.opus
</region>

<region>
hikey=b5
hivel=127
lokey=a#5
loop_end=272872
loop_mode=loop_continuous
loop_start=82219
loop_xfade=27055
lovel=1
pitch_keycenter=b5
sample=Violin1Solo_sul_ponticello_MF_B5.opus
</region>

<region>
hikey=E7
hivel=127
lokey=a#6
loop_end=249513
loop_mode=loop_continuous
loop_start=79958
loop_xfade=26310
lovel=1
pitch_keycenter=B6
sample=Violin1Solo_sul_ponticello_MF_B6.opus
</region>

<region>
hikey=c#4
hivel=127
lokey=c4
loop_end=254550
loop_mode=loop_continuous
loop_start=62246
loop_xfade=27218
lovel=1
pitch_keycenter=c#4
sample=Violin1Solo_sul_ponticello_MF_C#4.opus
</region>

<region>
hikey=c#5
hivel=127
lokey=c5
loop_end=266529
loop_mode=loop_continuous
loop_start=82093
loop_xfade=27013
lovel=1
pitch_keycenter=c#5
sample=Violin1Solo_sul_ponticello_MF_C#5.opus
</region>

<region>
hikey=c#6
hivel=127
lokey=c6
loop_end=267810
loop_mode=loop_continuous
loop_start=98516
loop_xfade=32417
lovel=1
offset=17039
pitch_keycenter=c#6
sample=Violin1Solo_sul_ponticello_MF_C#6.opus
</region>

<region>
hikey=d#4
hivel=127
lokey=d4
loop_end=245628
loop_mode=loop_continuous
loop_start=80245
loop_xfade=26405
lovel=1
pitch_keycenter=d#4
sample=Violin1Solo_sul_ponticello_MF_D#4.opus
</region>

<region>
hikey=d#5
hivel=127
lokey=d5
loop_end=251206
loop_mode=loop_continuous
loop_start=79009
loop_xfade=25999
lovel=1
pitch_keycenter=d#5
sample=Violin1Solo_sul_ponticello_MF_D#5.opus
</region>

<region>
hikey=d#6
hivel=127
lokey=d6
loop_end=239225
loop_mode=loop_continuous
loop_start=75938
loop_xfade=24988
lovel=1
pitch_keycenter=d#6
sample=Violin1Solo_sul_ponticello_MF_D#6.opus
</region>

<region>
hikey=f4
hivel=127
lokey=e4
loop_end=260161
loop_mode=loop_continuous
loop_start=95165
loop_xfade=31315
lovel=1
pitch_keycenter=f4
sample=Violin1Solo_sul_ponticello_MF_F4.opus
</region>

<region>
hikey=f5
hivel=127
lokey=e5
loop_end=260260
loop_mode=loop_continuous
loop_start=79905
loop_xfade=26293
lovel=1
pitch_keycenter=f5
sample=Violin1Solo_sul_ponticello_MF_F5.opus
</region>

<region>
hikey=f6
hivel=127
lokey=e6
loop_end=236410
loop_mode=loop_continuous
loop_start=75733
loop_xfade=24920
lovel=1
pitch_keycenter=f6
sample=Violin1Solo_sul_ponticello_MF_F6.opus
</region>

<region>
hivel=127
key=g3
loop_end=230232
loop_mode=loop_continuous
loop_start=75427
loop_xfade=27712
lovel=1
sample=Violin1Solo_sul_ponticello_MF_G3.opus
</region>

<region>
hikey=g4
hivel=127
lokey=f#4
loop_end=255719
loop_mode=loop_continuous
loop_start=80766
loop_xfade=26576
lovel=1
pitch_keycenter=g4
sample=Violin1Solo_sul_ponticello_MF_G4.opus
</region>

<region>
hikey=g5
hivel=127
lokey=f#5
loop_end=256495
loop_mode=loop_continuous
loop_start=79676
loop_xfade=26218
lovel=1
pitch_keycenter=g5
sample=Violin1Solo_sul_ponticello_MF_G5.opus
</region>

<region>
hikey=g6
hivel=127
lokey=f#6
loop_end=247488
loop_mode=loop_continuous
loop_start=78853
loop_xfade=25947
lovel=1
pitch_keycenter=g6
sample=Violin1Solo_sul_ponticello_MF_G6.opus
</region>
</group>

<group>
group_label=FF
xf_cccurve=gain
xfin_hicc1=127
xfin_locc1=85
xfout_hicc1=127
xfout_locc1=127

<region>
hikey=a3
hivel=127
lokey=g#3
loop_end=286141
loop_mode=loop_continuous
loop_start=87859
loop_xfade=28910
lovel=1
pitch_keycenter=a3
sample=Violin1Solo_sul_ponticello_FF_A3.opus
</region>

<region>
hikey=a4
hivel=127
lokey=g#4
loop_end=271481
loop_mode=loop_continuous
loop_start=82662
loop_xfade=27200
lovel=1
pitch_keycenter=a4
sample=Violin1Solo_sul_ponticello_FF_A4.opus
</region>

<region>
hikey=a5
hivel=127
lokey=g#5
loop_end=269680
loop_mode=loop_continuous
loop_start=81602
loop_xfade=26852
lovel=1
pitch_keycenter=a5
sample=Violin1Solo_sul_ponticello_FF_A5.opus
</region>

<region>
hikey=a6
hivel=127
lokey=g#6
loop_end=268732
loop_mode=loop_continuous
loop_start=81519
loop_xfade=26825
lovel=1
pitch_keycenter=a6
sample=Violin1Solo_sul_ponticello_FF_A6.opus
</region>

<region>
hikey=b3
hivel=127
lokey=a#3
loop_end=260534
loop_mode=loop_continuous
loop_start=82617
loop_xfade=27186
lovel=1
pitch_keycenter=b3
sample=Violin1Solo_sul_ponticello_FF_B3.opus
</region>

<region>
hikey=b4
hivel=127
lokey=a#4
loop_end=270265
loop_mode=loop_continuous
loop_start=81763
loop_xfade=26905
lovel=1
pitch_keycenter=b4
sample=Violin1Solo_sul_ponticello_FF_B4.opus
</region>

<region>
hikey=b5
hivel=127
lokey=a#5
loop_end=269587
loop_mode=loop_continuous
loop_start=82705
loop_xfade=27214
lovel=1
pitch_keycenter=b5
sample=Violin1Solo_sul_ponticello_FF_B5.opus
</region>

<region>
hikey=E7
hivel=127
lokey=a#6
loop_end=278890
loop_mode=loop_continuous
loop_start=82610
loop_xfade=27183
lovel=1
pitch_keycenter=B6
sample=Violin1Solo_sul_ponticello_FF_B6.opus
</region>

<region>
hikey=c#4
hivel=127
lokey=c4
loop_end=263421
loop_mode=loop_continuous
loop_start=83903
loop_xfade=27609
lovel=1
pitch_keycenter=c#4
sample=Violin1Solo_sul_ponticello_FF_C#4.opus
</region>

<region>
hikey=c#5
hivel=127
lokey=c5
loop_end=260600
loop_mode=loop_continuous
loop_start=81251
loop_xfade=26736
lovel=1
pitch_keycenter=c#5
sample=Violin1Solo_sul_ponticello_FF_C#5.opus
</region>

<region>
hikey=c#6
hivel=127
lokey=c6
loop_end=281891
loop_mode=loop_continuous
loop_start=95021
loop_xfade=31267
lovel=1
pitch_keycenter=c#6
sample=Violin1Solo_sul_ponticello_FF_C#6.opus
</region>

<region>
hikey=d#4
hivel=127
lokey=d4
loop_end=250725
loop_mode=loop_continuous
loop_start=78412
loop_xfade=25802
lovel=1
pitch_keycenter=d#4
sample=Violin1Solo_sul_ponticello_FF_D#4.opus
</region>

<region>
hikey=d#5
hivel=127
lokey=d5
loop_end=279826
loop_mode=loop_continuous
loop_start=83756
loop_xfade=27561
lovel=1
pitch_keycenter=d#5
sample=Violin1Solo_sul_ponticello_FF_D#5.opus
</region>

<region>
hikey=d#6
hivel=127
lokey=d6
loop_end=260337
loop_mode=loop_continuous
loop_start=79866
loop_xfade=26280
lovel=1
pitch_keycenter=d#6
sample=Violin1Solo_sul_ponticello_FF_D#6.opus
</region>

<region>
hikey=f4
hivel=127
lokey=e4
loop_end=265999
loop_mode=loop_continuous
loop_start=82376
loop_xfade=27106
lovel=1
pitch_keycenter=f4
sample=Violin1Solo_sul_ponticello_FF_F4.opus
</region>

<region>
hikey=f5
hivel=127
lokey=e5
loop_end=267111
loop_mode=loop_continuous
loop_start=82008
loop_xfade=26986
lovel=1
pitch_keycenter=f5
sample=Violin1Solo_sul_ponticello_FF_F5.opus
</region>

<region>
hikey=f6
hivel=127
lokey=e6
loop_end=281130
loop_mode=loop_continuous
loop_start=93864
loop_xfade=30887
lovel=1
pitch_keycenter=f6
sample=Violin1Solo_sul_ponticello_FF_F6.opus
</region>

<region>
hivel=127
key=g3
loop_end=271547
loop_mode=loop_continuous
loop_start=83120
loop_xfade=27351
lovel=1
sample=Violin1Solo_sul_ponticello_FF_G3.opus
</region>

<region>
hikey=g4
hivel=127
lokey=f#4
loop_end=271202
loop_mode=loop_continuous
loop_start=82361
loop_xfade=27102
lovel=1
pitch_keycenter=g4
sample=Violin1Solo_sul_ponticello_FF_G4.opus
</region>

<region>
hikey=g5
hivel=127
lokey=f#5
loop_end=280463
loop_mode=loop_continuous
loop_start=85063
loop_xfade=27991
lovel=1
pitch_keycenter=g5
sample=Violin1Solo_sul_ponticello_FF_G5.opus
</region>

<region>
hikey=g6
hivel=127
lokey=f#6
loop_end=266432
loop_mode=loop_continuous
loop_start=80960
loop_xfade=26641
lovel=1
pitch_keycenter=g6
sample=Violin1Solo_sul_ponticello_FF_G6.opus
</region>
</group>